<svg width="792.95mm" height="101.37mm" version="1.1" viewBox="0 0 792.95 101.37" xmlns="http://www.w3.org/2000/svg">
 <style type="text/css">.st0{fill:#FFFFFF;}
	.st1{fill:#DFDFDF;}
	.st2{fill:#0a1929;}
	.st3{fill:#7efcff;}</style>
 <g fill="#7efcff" stroke="#004e50" stroke-linejoin="bevel" stroke-width="4.8181" aria-label="POKEMON CHAMBER">
  <path d="m45.96 42.077q0 3.1368-1.0979 6.1481-1.0979 2.9799-3.1368 5.0189-2.7917 2.7604-6.2422 4.1719-3.4191 1.4116-8.5321 1.4116h-7.4969v15.213h-12.045v-46.707h19.824q4.4542 0 7.4969 0.7842 3.0741 0.75283 5.4266 2.2899 2.8231 1.8507 4.2974 4.7365 1.5057 2.8858 1.5057 6.9323zm-12.453 0.28231q0-1.9762-1.0665-3.3877-1.0665-1.4429-2.4781-2.0075-1.8821-0.75283-3.67-0.81556-1.788-0.0941-4.7679-0.0941h-2.0703v13.99h3.4505q3.0741 0 5.0502-0.37642 2.0075-0.37641 3.3564-1.5057 1.1606-1.0038 1.6625-2.384 0.53325-1.4116 0.53325-3.4191z"/>
  <path d="m97.267 50.703q0 11.167-6.399 17.754-6.399 6.5559-17.691 6.5559-11.261 0-17.66-6.5559-6.399-6.5873-6.399-17.754 0-11.261 6.399-17.786 6.399-6.5559 17.66-6.5559 11.23 0 17.66 6.5559 6.4304 6.5245 6.4304 17.786zm-15.966 11.826q1.7566-2.133 2.6035-5.0189 0.84693-2.9172 0.84693-6.8382 0-4.2033-0.9724-7.1519t-2.5408-4.7679q-1.5998-1.8821-3.7014-2.729-2.0703-0.84693-4.3288-0.84693-2.2899 0-4.3288 0.81556-2.0075 0.81556-3.7014 2.6976-1.5684 1.7566-2.5722 4.862-0.9724 3.0741-0.9724 7.1519 0 4.1719 0.94104 7.1205 0.9724 2.9172 2.5408 4.7679t3.67 2.729 4.4229 0.8783q2.3212 0 4.4229-0.8783 2.1016-0.90967 3.67-2.7917z"/>
  <path d="m147.41 74.04h-14.774l-13.959-18.695-2.8231 3.4191v15.276h-12.045v-46.707h12.045v21.142l16.688-21.142h13.959l-18.256 21.612z"/>
  <path d="m184.48 74.04h-33.783v-46.707h33.783v9.0339h-21.801v8.0615h20.232v9.0339h-20.232v11.543h21.801z"/>
  <path d="m240.9 74.04h-11.983v-31.274l-8.6575 20.295h-8.3125l-8.6575-20.295v31.274h-11.355v-46.707h13.99l10.508 23.432 10.477-23.432h13.99z"/>
  <path d="m295.59 50.703q0 11.167-6.399 17.754-6.399 6.5559-17.691 6.5559-11.261 0-17.66-6.5559-6.399-6.5873-6.399-17.754 0-11.261 6.399-17.786 6.399-6.5559 17.66-6.5559 11.23 0 17.66 6.5559 6.4304 6.5245 6.4304 17.786zm-15.966 11.826q1.7566-2.133 2.6035-5.0189 0.84693-2.9172 0.84693-6.8382 0-4.2033-0.9724-7.1519-0.97241-2.9486-2.5408-4.7679-1.5998-1.8821-3.7014-2.729-2.0703-0.84693-4.3288-0.84693-2.2898 0-4.3288 0.81556-2.0076 0.81556-3.7014 2.6976-1.5684 1.7566-2.5722 4.862-0.9724 3.0741-0.9724 7.1519 0 4.1719 0.94104 7.1205 0.9724 2.9172 2.5408 4.7679t3.67 2.729 4.4229 0.8783q2.3212 0 4.4229-0.8783 2.1016-0.90967 3.67-2.7917z"/>
  <path d="m344.61 74.04h-11.606l-19.824-32.058v32.058h-11.041v-46.707h14.398l17.033 26.757v-26.757h11.041z"/>
  <path d="m473.68 74.95q-5.2071 0-9.6299-1.537-4.3915-1.537-7.5597-4.5797t-4.9248-7.591q-1.7252-4.5483-1.7252-10.508 0-5.5521 1.6625-10.069 1.6625-4.517 4.8306-7.7479 3.0427-3.1054 7.5283-4.7993 4.517-1.6939 9.8495-1.6939 2.9486 0 5.3012 0.34505 2.384 0.31368 4.3915 0.84693 2.1016 0.59599 3.7955 1.3488 1.7252 0.72146 3.0113 1.3488v11.324h-1.3802q-0.8783-0.75283-2.2271-1.788-1.3174-1.0351-3.0113-2.0389-1.7252-1.0038-3.7328-1.6939-2.0075-0.69009-4.2974-0.69009-2.5408 0-4.8306 0.81556-2.2898 0.7842-4.2347 2.6349-1.8507 1.788-3.0113 4.7365-1.1292 2.9486-1.1292 7.1519 0 4.3915 1.2234 7.3401 1.2547 2.9486 3.1368 4.6424 1.9134 1.7252 4.266 2.4781 2.3526 0.72146 4.6424 0.72146 2.1958 0 4.3288-0.65873 2.1644-0.65872 3.9837-1.788 1.537-0.90967 2.8545-1.9448 1.3174-1.0351 2.1644-1.788h1.2547v11.167q-1.7566 0.7842-3.3564 1.4743t-3.3564 1.192q-2.2899 0.65873-4.2974 1.0038-2.0076 0.34505-5.5208 0.34505z"/>
  <path d="m538.29 74.04h-12.045v-20.577h-17.786v20.577h-12.045v-46.707h12.045v17.095h17.786v-17.095h12.045z"/>
  <path d="m590.73 74.04h-12.453l-3.2309-9.4417h-17.315l-3.2309 9.4417h-12.139l17.252-46.707h13.865zm-18.601-18.005-5.7403-16.75-5.7403 16.75z"/>
  <path d="m643.76 74.04h-11.983v-31.274l-8.6575 20.295h-8.3125l-8.6575-20.295v31.274h-11.355v-46.707h13.99l10.508 23.432 10.477-23.432h13.99z"/>
  <path d="m692.99 59.737q0 3.3877-1.3802 6.054-1.3488 2.6663-3.7328 4.4229-2.7604 2.0703-6.0854 2.9486-3.2936 0.8783-8.3752 0.8783h-20.389v-46.707h18.131q5.6462 0 8.2498 0.37642 2.6349 0.37641 5.2071 1.6625 2.6663 1.3488 3.9524 3.6387 1.3174 2.2585 1.3174 5.1757 0 3.3877-1.788 5.9913-1.788 2.5722-5.0502 4.0151v0.25094q4.5797 0.90967 7.246 3.7641 2.6976 2.8545 2.6976 7.5283zm-15.433-19.197q0-1.1606-0.59599-2.3212-0.56462-1.1606-2.0389-1.7252-1.3174-0.50189-3.2936-0.53325-1.9448-0.06274-5.4894-0.06274h-1.1292v9.8809h1.8821q2.8545 0 4.862-0.0941t3.1682-0.62736q1.6311-0.72146 2.133-1.8507 0.50189-1.1606 0.50189-2.6663zm2.9486 19.009q0-2.2271-0.8783-3.4191-0.84694-1.2233-2.9172-1.8193-1.4116-0.40778-3.8896-0.43915-2.4781-0.03137-5.1757-0.03137h-2.6349v11.637h0.8783q5.0816 0 7.2774-0.03137t4.0464-0.81556q1.8821-0.7842 2.5722-2.0703 0.72146-1.3175 0.72146-3.0113z"/>
  <path d="m733.1 74.04h-33.783v-46.707h33.783v9.0339h-21.801v8.0615h20.232v9.0339h-20.232v11.543h21.801z"/>
  <path d="m766.75 41.637q0-1.7566-0.72146-3.0113t-2.4781-1.9762q-1.2234-0.50189-2.8545-0.59599-1.6311-0.12547-3.7955-0.12547h-4.3601v12.579h3.7014q2.8858 0 4.8306-0.28231t3.2623-1.2861q1.2547-0.9724 1.8193-2.133 0.59599-1.192 0.59599-3.1682zm18.789 32.403h-14.712l-12.735-17.127h-5.5521v17.127h-11.983v-46.707h20.201q4.1406 0 7.1205 0.47052t5.5835 2.0389q2.6349 1.5684 4.1719 4.0778 1.5684 2.4781 1.5684 6.2422 0 5.1757-2.4153 8.438-2.384 3.2623-6.8382 5.4266z"/>
 </g>
 <g stroke-width=".17867">
  <path id="a" class="st0" d="m396.46 65.678c-7.2184 0-13.24-5.1101-14.669-11.9h-24.014c1.6974 19.744 18.261 35.235 38.433 35.235s36.753-15.491 38.433-35.235h-23.514c-1.4294 6.8075-7.4507 11.9-14.669 11.9z"/>
  <path id="b" class="st1" d="m405.04 88.012c16.009-3.7522 28.177-17.456 29.606-34.234h-9.4697c-0.94697 15.223-8.9337 28.123-20.137 34.234z"/>
  <path id="c" class="st0" d="m405.31 50.687c-0.0179 0-0.0179 0 0 0-0.0179-1.0899-0.21441-2.1262-0.57176-3.0911-1.2507-3.3591-4.4847-5.7354-8.2726-5.7354s-7.0219 2.3942-8.2726 5.7354c-0.35735 0.96484-0.55389 2.0012-0.55389 3.0911h0.0179c0 1.0899 0.19654 2.1262 0.55389 3.0911 1.2507 3.3591 4.4847 5.7354 8.2726 5.7354s7.0219-2.3942 8.2726-5.7354c0.35735-0.94697 0.55389-2.0012 0.55389-3.0911z"/>
 </g>
 <path id="d" class="st2" d="m396.48 35.714c7.2184 0 13.24 5.1101 14.669 11.9h24.014c-1.6974-19.761-18.261-35.252-38.451-35.252s-36.735 15.491-38.433 35.235h23.531c1.4294-6.7896 7.4507-11.882 14.669-11.882z" fill="#0a1929" stroke="#000" stroke-width="3"/>
 <path id="e" class="st3" d="m425.18 47.596h9.97c-1.4651-17.063-14.044-30.964-30.464-34.413 11.399 6.0213 19.529 19.047 20.494 34.413z" fill="#7efcff" stroke-width=".17867"/>
 <path id="f" d="m396.72 12.361c20.19 0 36.753 15.491 38.433 35.235h-24.014c-1.4294-6.7896-7.4507-11.9-14.669-11.9s-13.24 5.1101-14.669 11.9h-23.514c1.6974-19.744 18.261-35.235 38.433-35.235zm8.0225 35.235c0.35735 0.96484 0.55389 2.0012 0.55389 3.0911h0.0179c0 1.0899-0.19654 2.1262-0.55389 3.0911-1.2507 3.3591-4.4847 5.7354-8.2726 5.7354s-7.0219-2.3942-8.2726-5.7354c-0.35735-0.96484-0.55389-2.0012-0.55389-3.0911h-0.0179c0-1.0899 0.19654-2.1262 0.55389-3.0911 1.2507-3.3591 4.4847-5.7354 8.2726-5.7354s7.0219 2.3942 8.2726 5.7354zm-8.5228 41.435c-20.19 0-36.753-15.491-38.433-35.235h24.014c1.4294 6.7896 7.4507 11.9 14.669 11.9s13.24-5.1101 14.669-11.9h23.531c-1.6974 19.726-18.261 35.235-38.451 35.235zm0.25014-84.031c-25.229 0-45.687 20.458-45.687 45.687s20.458 45.687 45.687 45.687 45.705-20.44 45.705-45.687-20.458-45.687-45.705-45.687z" stroke-width=".17867"/>
</svg>
