<?xml version="1.0" standalone="no"?>
<!DOCTYPE svg PUBLIC "-//W3C//DTD SVG 20010904//EN"
 "http://www.w3.org/TR/2001/REC-SVG-20010904/DTD/svg10.dtd">
<svg version="1.0" xmlns="http://www.w3.org/2000/svg"
 width="1280.000000pt" height="1280.000000pt" viewBox="0 0 1280.000000 1280.000000"
 preserveAspectRatio="xMidYMid meet">
<g transform="translate(0.000000,1280.000000) scale(0.100000,-0.100000)"
fill="current" stroke="current">
<path d="M24 12764 c15 -39 77 -255 126 -444 81 -310 158 -480 271 -604 28
-31 1204 -1232 2611 -2669 1408 -1437 2563 -2619 2569 -2629 7 -13 -230 -249
-1286 -1285 -793 -776 -1302 -1268 -1314 -1268 -20 0 -1260 1010 -1286 1048
-8 12 -15 37 -15 56 0 84 -73 170 -169 198 -70 20 -143 6 -203 -40 -60 -46
-88 -105 -88 -187 0 -57 4 -73 32 -120 46 -74 114 -112 202 -112 l64 0 603
-755 c332 -416 610 -765 618 -776 12 -17 9 -23 -35 -68 -48 -48 -48 -49 -99
-43 -45 6 -55 3 -81 -19 -25 -22 -29 -32 -28 -74 l2 -49 -50 0 c-43 1 -53 -3
-75 -28 -21 -25 -24 -37 -20 -73 l5 -43 -54 0 c-69 0 -97 -30 -93 -100 l3 -45
-45 3 c-38 3 -51 -1 -75 -21 -25 -22 -29 -32 -28 -74 l2 -49 -50 0 c-43 1 -53
-3 -75 -28 -22 -25 -24 -36 -19 -74 l6 -44 -33 5 c-40 6 -92 -15 -107 -43 -6
-12 -10 -40 -8 -63 l3 -42 -46 3 c-38 3 -51 -1 -75 -21 -25 -22 -29 -32 -28
-74 l2 -49 -50 0 c-43 1 -53 -3 -75 -28 -21 -25 -24 -36 -19 -73 l6 -43 -51 0
c-40 0 -55 -5 -75 -25 -21 -21 -25 -33 -23 -73 l3 -47 -45 3 c-38 3 -51 -1
-75 -21 -25 -22 -29 -32 -28 -74 l2 -49 -50 0 c-43 1 -53 -3 -75 -28 -21 -25
-24 -36 -19 -73 l6 -43 -51 0 c-69 0 -99 -29 -99 -98 l0 -50 -42 5 c-75 8
-124 -54 -98 -122 10 -27 8 -32 -48 -87 l-58 -59 -68 11 c-169 27 -341 -35
-469 -168 -64 -68 -106 -147 -136 -255 -26 -96 -26 -127 -1 -225 31 -115 76
-197 150 -272 75 -74 157 -119 272 -150 98 -25 129 -25 225 1 118 32 189 73
269 153 121 121 177 283 154 446 l-10 74 58 59 c55 55 60 57 87 47 68 -26 130
23 122 98 l-5 42 50 0 c68 0 98 30 98 98 l0 50 45 -5 c39 -5 47 -2 76 26 29
29 31 36 26 76 l-6 43 50 -2 c45 -1 54 3 76 28 21 25 24 37 20 73 l-5 43 49 0
c72 0 102 30 101 98 l-2 52 43 -6 c37 -5 48 -2 73 19 25 22 29 32 28 75 l0 50
49 -2 c42 -1 52 3 74 28 21 25 24 37 20 73 l-5 43 49 0 c72 0 103 30 101 98
l-1 51 43 -5 c36 -5 47 -2 72 19 25 22 29 32 28 75 l0 50 49 -2 c42 -1 52 3
74 28 20 24 24 37 21 75 l-3 45 47 -3 c40 -2 52 2 73 23 20 20 25 35 25 74 l0
50 43 -5 c36 -4 48 -1 73 20 25 22 29 32 28 75 l0 50 49 -2 c42 -1 52 3 74 28
22 26 25 36 19 80 -5 49 -4 52 36 93 23 24 48 43 56 43 7 0 356 -273 775 -606
l762 -606 6 -72 c9 -108 51 -174 133 -212 162 -76 336 33 336 211 0 124 -82
215 -207 232 -27 3 -54 10 -61 16 -29 23 -1037 1260 -1040 1275 -2 11 447 476
1263 1310 697 710 1270 1292 1275 1292 18 0 2535 -2580 2535 -2599 0 -16
-1000 -1249 -1037 -1278 -7 -6 -34 -13 -61 -16 -126 -17 -207 -109 -207 -234
1 -254 332 -323 450 -94 7 14 15 57 19 97 l6 72 762 606 c419 333 768 606 775
606 8 0 33 -19 56 -43 40 -41 41 -44 36 -93 -6 -44 -3 -54 19 -80 22 -25 31
-29 76 -28 l50 2 -6 -43 c-5 -40 -3 -47 26 -76 29 -28 37 -31 77 -26 l44 5 -2
-42 c-2 -75 32 -110 105 -104 l42 3 -3 -46 c-3 -38 1 -51 21 -75 22 -25 32
-29 74 -28 l49 2 0 -50 c-1 -43 3 -53 28 -75 25 -21 36 -24 72 -19 l43 5 -1
-51 c-2 -68 29 -98 101 -98 l49 0 -5 -43 c-4 -36 -1 -48 20 -73 22 -25 32 -29
74 -28 l49 2 0 -50 c-1 -43 3 -53 28 -75 25 -21 36 -24 73 -19 l43 6 -2 -52
c-1 -68 29 -98 101 -98 l49 0 -5 -43 c-4 -36 -1 -48 20 -73 22 -25 31 -29 76
-28 l50 2 -6 -43 c-5 -40 -3 -47 26 -76 29 -28 36 -31 77 -26 l45 5 -1 -32
c-3 -56 0 -67 25 -91 19 -20 34 -25 73 -25 l50 0 -5 -42 c-8 -75 54 -124 122
-98 27 10 32 8 87 -48 l59 -58 -11 -71 c-15 -94 5 -214 51 -309 41 -88 149
-199 234 -241 69 -35 199 -73 250 -73 54 0 182 37 255 73 85 42 185 142 227
227 36 73 73 201 73 255 0 50 -38 181 -72 249 -35 70 -120 162 -189 207 -106
68 -245 98 -365 79 l-68 -11 -58 59 c-56 55 -58 60 -48 87 26 69 -22 129 -99
123 l-45 -3 3 47 c2 40 -2 52 -23 73 -20 20 -35 25 -75 25 l-51 0 6 43 c5 37
2 48 -19 73 -22 25 -32 29 -75 28 l-50 0 2 49 c1 42 -3 52 -28 74 -24 20 -37
24 -75 21 l-45 -3 3 47 c2 40 -2 52 -23 73 -20 20 -35 25 -75 25 l-51 0 6 43
c5 37 2 48 -19 73 -22 25 -32 29 -75 28 l-50 0 2 49 c1 42 -3 52 -28 74 -24
20 -37 24 -75 21 l-46 -3 3 42 c2 23 -2 51 -8 63 -15 28 -67 49 -107 43 l-33
-5 6 44 c5 38 3 49 -19 74 -22 25 -32 29 -75 28 l-50 0 2 49 c1 42 -3 52 -28
74 -24 20 -37 24 -75 21 l-45 -3 3 45 c2 34 -3 52 -19 73 -19 23 -29 27 -76
27 l-54 0 6 43 c5 37 2 48 -19 73 -22 25 -32 29 -76 28 l-50 0 2 49 c2 43 -2
52 -27 74 -26 22 -36 25 -81 19 -51 -6 -51 -5 -99 43 -44 45 -47 51 -35 68 8
11 286 360 618 776 l603 755 64 0 c88 0 156 38 201 112 29 47 33 63 33 120 0
117 -70 205 -183 230 -133 30 -277 -77 -277 -204 0 -31 -7 -45 -37 -75 -83
-81 -1255 -1032 -1268 -1029 -15 3 -2605 2535 -2605 2547 0 3 1166 1196 2591
2651 1425 1455 2614 2674 2641 2710 101 132 155 271 257 656 33 126 69 256 81
288 11 33 19 61 17 62 -2 2 -39 -8 -82 -22 -44 -14 -181 -52 -305 -84 -343
-89 -483 -145 -620 -246 -36 -26 -186 -167 -335 -314 -148 -146 -1044 -1024
-1990 -1950 -946 -927 -2014 -1973 -2373 -2325 -399 -391 -660 -640 -672 -640
-12 0 -1027 987 -2661 2588 -1453 1424 -2667 2609 -2698 2633 -122 96 -300
170 -591 243 -156 40 -372 101 -414 117 -16 6 -18 4 -12 -12z"/>
</g>
</svg>
